<?xml version="1.0" encoding="UTF-8" standalone="no"?>
<svg
   width="24"
   height="24"
   viewBox="0 0 24 24"
   fill="none"
   version="1.1"
   id="svg16"
   sodipodi:docname="Icon-Twitter.svg"
   inkscape:version="1.2.1 (9c6d41e410, 2022-07-14)"
   xmlns:inkscape="http://www.inkscape.org/namespaces/inkscape"
   xmlns:sodipodi="http://sodipodi.sourceforge.net/DTD/sodipodi-0.dtd"
   xmlns="http://www.w3.org/2000/svg"
   xmlns:svg="http://www.w3.org/2000/svg">
  <sodipodi:namedview
     id="namedview18"
     pagecolor="#ffffff"
     bordercolor="#000000"
     borderopacity="0.25"
     inkscape:showpageshadow="2"
     inkscape:pageopacity="0.0"
     inkscape:pagecheckerboard="0"
     inkscape:deskcolor="#d1d1d1"
     showgrid="false"
     inkscape:zoom="34"
     inkscape:cx="10.352941"
     inkscape:cy="12.014706"
     inkscape:window-width="1920"
     inkscape:window-height="1003"
     inkscape:window-x="-9"
     inkscape:window-y="-9"
     inkscape:window-maximized="1"
     inkscape:current-layer="svg16" />
  <g
     clip-path="url(#clip0_48_55)"
     id="g6"
     style="fill:#c83737">
    <g
       clip-path="url(#clip1_48_55)"
       id="g4"
       style="fill:#c83737">
      <path
         d="M21.7665 2.36976C21.4331 1.97109 20.8665 1.87143 20.4331 2.17043L18.4998 3.49933C17.5998 2.53588 16.3331 2.00432 14.9665 2.00432C12.2665 2.00432 10.0331 4.197 10.0331 6.92125C10.0331 7.31992 10.0665 7.68537 10.1665 8.05081C7.83313 7.55248 6.43313 5.85813 5.8998 2.80166C5.83313 2.40299 5.53313 2.10398 5.13313 2.00432C4.76646 1.90465 4.36646 2.07076 4.13313 2.36976C4.06646 2.43621 -1.43354 10.0774 6.53313 16.5558C5.76646 18.1837 3.46646 19.579 2.56646 20.0441C2.13313 20.2435 1.93313 20.7086 2.03313 21.1737C2.13313 21.6388 2.53313 21.9378 2.9998 21.9378H4.73313C14.8665 21.9378 19.4665 16.9212 19.5665 5.69202L21.6665 3.69867C22.0665 3.36644 22.0998 2.76844 21.7665 2.36976Z"
         fill="#DBD8D7"
         id="path2"
         style="fill:#c83737" />
    </g>
  </g>
  <defs
     id="defs14">
    <clipPath
       id="clip0_48_55">
      <rect
         width="20"
         height="20"
         fill="white"
         transform="translate(2 2)"
         id="rect8" />
    </clipPath>
    <clipPath
       id="clip1_48_55">
      <rect
         width="20"
         height="19.9667"
         fill="white"
         transform="translate(2 1.97144)"
         id="rect11" />
    </clipPath>
  </defs>
</svg>
